<svg xmlns="http://www.w3.org/2000/svg" version="1.1" xmlns:xlink="http://www.w3.org/1999/xlink" xmlns:svgjs="http://svgjs.com/svgjs" width="1440" height="560" preserveAspectRatio="none" viewBox="0 0 1440 560">
    <g mask="url(&quot;#SvgjsMask1240&quot;)" fill="none">
        <rect width="1440" height="560" x="0" y="0" fill="rgba(209, 210, 221, 1)"></rect>
        <path d="M0,612.414C112.243,621.94,183.581,494.015,278.406,433.207C373.351,372.322,497.797,350.248,557.778,254.729C620.196,155.331,630.825,27.514,605.07,-86.996C580.217,-197.496,504.649,-288.999,418.856,-362.941C340.955,-430.081,241.057,-455.944,142.584,-485.596C43.417,-515.457,-54.761,-549.31,-157.531,-536.501C-272.096,-522.221,-409.295,-505.929,-472.003,-408.993C-535.346,-311.075,-450.23,-182.435,-461.655,-66.376C-472.326,42.03,-582.41,146.23,-536.377,244.955C-490.276,343.826,-339.603,326.739,-249.606,388.394C-155.469,452.885,-113.7,602.764,0,612.414" fill="#a0a2b9"></path>
        <path d="M1440 1024.218C1533.247 1036.571 1640.327 1044.781 1713.827 986.0830000000001 1786.809 927.799 1786.6109999999999 819.358 1809.806 728.885 1829.0520000000001 653.814 1849.679 579.388 1837.725 502.81600000000003 1825.866 426.851 1793.692 355.248 1742.52 297.865 1691.799 240.988 1626.182 194.793 1551.15 181.457 1479.514 168.72500000000002 1410.983 203.171 1342.135 226.704 1276.329 249.19799999999998 1212.671 272.599 1158.163 315.78700000000003 1094.238 366.43600000000004 1008.6659999999999 415.69 1001.119 496.898 993.5360000000001 578.49 1085.759 631.731 1121.967 705.241 1156.703 775.762 1153.635 863.556 1209.1399999999999 919.225 1270.062 980.328 1354.462 1012.886 1440 1024.218" fill="#ffffff"></path>
    </g>
    <defs>
        <mask id="SvgjsMask1240">
            <rect width="1440" height="560" fill="#ffffff"></rect>
        </mask>
    </defs>
</svg>